<svg xmlns="http://www.w3.org/2000/svg" width="65" height="56" viewBox="0 0 65 56">
    <g fill="#231916" fill-rule="evenodd">
        <path d="M55.326 6.9C49.213 2.45 41.107 0 32.503 0c-8.602 0-16.707 2.45-22.82 6.9C3.437 11.443 0 17.525 0 24.024c0 7.915 5.19 15.235 13.93 19.727v10.634a1.36 1.36 0 0 0 2.322.963l8.068-8.072c2.662.51 5.409.77 8.184.77 8.604 0 16.71-2.45 22.823-6.9 6.242-4.541 9.68-10.621 9.68-17.122 0-6.5-3.438-12.58-9.68-17.124M32.502 45.326c-2.84 0-5.653-.286-8.353-.852-.003 0-.005 0-.008-.002a1.388 1.388 0 0 0-.24-.023c-.01 0-.019-.004-.029-.004a1.356 1.356 0 0 0-.855.308c-.033.027-.069.05-.1.08l-.01.01-6.262 6.26v-8.05a1.359 1.359 0 0 0-.756-1.36C7.642 37.709 2.718 31.104 2.718 24.025c0-11.746 13.361-21.302 29.784-21.302 16.424 0 29.785 9.556 29.785 21.302 0 11.744-13.36 21.301-29.784 21.301"/>
        <path d="M30.556 33.041c0-1.164.952-2.015 2.095-2.015 1.175 0 2.127.851 2.127 2.015 0 1.164-.952 1.959-2.127 1.959-1.143 0-2.095-.795-2.095-1.959m5.619-14.818c0-1.703-1.175-3.066-3.429-3.066-1.587 0-2.984.682-4.095 1.817L27 15.612C28.46 14.107 30.492 13 33.063 13 36.651 13 39 14.959 39 18.053c0 4.173-5.714 5.848-5.143 10.304h-2.571c-.73-4.939 4.889-6.756 4.889-10.134"/>
    </g>
</svg>
