<svg xmlns="http://www.w3.org/2000/svg" width="34" height="34" viewBox="0 0 34 34">
    <g fill="none" fill-rule="evenodd" transform="translate(1 1)">
        <circle cx="16" cy="16" r="16" fill="#FFF" stroke="#98989A" stroke-width="1.5"/>
        <path fill="#98989A" d="M6.877 28.43c-.155.447-.463.599-.929.599-.306 0-.615-.3-.615-.748.463-4.496 2.778-7.644 5.71-9.145.615-.297 1.079-.595 1.851-.747-.614-.299-1.08-.748-1.544-1.05-1.234-1.198-1.85-2.849-1.85-4.494 0-1.802.616-3.45 1.85-4.494 1.236-1.2 2.777-1.951 4.628-1.951 1.853 0 3.398.75 4.63 1.951 1.237 1.044 1.852 2.692 1.852 4.494 0 1.645-.615 3.296-1.851 4.495-.462.301-.923.75-1.543 1.05.62.15 1.081.449 1.543.599 3.087 1.648 5.401 4.643 6.017 9.292.156.297-.153.748-.616.748-.46.15-.771-.152-.771-.599-.616-4.046-2.625-6.744-5.251-8.091-1.23-.75-2.77-1.048-4.163-1.048-1.387 0-2.778.447-4.011 1.048-2.624 1.347-4.475 4.045-4.937 8.091M19.53 9.395c-.926-.897-2.163-1.495-3.552-1.495-1.387 0-2.62.598-3.549 1.495-.922.902-1.54 2.1-1.54 3.45 0 1.348.618 2.548 1.54 3.448.928.896 2.162 1.348 3.55 1.348s2.625-.452 3.55-1.348c.927-.9 1.544-2.1 1.544-3.448 0-1.35-.617-2.548-1.543-3.45"/>
    </g>
</svg>
