<svg xmlns="http://www.w3.org/2000/svg" width="64" height="80" viewBox="0 0 64 80">
    <g fill="#98989A" fill-rule="evenodd">
        <path d="M0 1.63C0 0 1.829 0 1.829 0h45.745L64 14.667v63.705C64 80 62.171 80 62.171 80H1.83S0 80 0 78.37V1.63zm3.765 75.038V3.335h41.412v9.997c0 3.336 3.768 3.336 3.768 3.336h11.29v60H3.765z"/>
        <path d="M16.967 58.894l7.483-.022-.024-14.532-7.459.023v14.53zm11.923-.01c1.15.002 5.687.013 9.423.013 2.171 0 4.071-.004 4.878-.015.641-.008 1.07-.179 1.312-.519.428-.604.407-1.526.298-1.915l-.748-.638 1.078-.413c.446-.35.7-1.31.773-2.083.057-.601-.238-.965-.297-1.032l-1.014-.901 1.28-.536c-.005 0 .802-.526.875-1.73.065-1.07-.418-1.53-.438-1.549l-.799-.734.87-.643c.102-.084.631-.566.651-1.563.046-2.252-2.638-2.547-2.944-2.573l-4.791.002a1.26 1.26 0 0 1-.158.008c-.243 0-.851-.061-1.226-.623-.735-1.102-.276-2.31.11-2.85.161-.202 1.522-1.95 2.432-4.643.705-2.098-.86-3.731-1.357-4.184.002.008-.01.01-.028.01-.04 0-.114-.01-.196-.01a.702.702 0 0 0-.368.092c-.29.175-.493.655-.575 1.355-.47 4.02-4.094 6.963-4.505 7.285-.162.127-.251.197-.316.253-.454.392-1.025 1.58-1.576 2.732l-.301.623c-.698 1.43-2.633 3.32-2.756 3.419l-.232.19-.303.006s-1.032.023-1.78.03v11.595c1.155.033 1.54.762 1.688 1.04.099.092.505.31.983.514l.057-.014zm9.274 1.778c-3.954 0-8.265-.01-9.307-.013h-.373l-.194-.067c-.922-.372-1.395-1.014-1.65-1.359l-.06-.082-.102.055c-.097.054-.214.119-.344.151a1.75 1.75 0 0 1-1.684 1.292h-7.507c-.961 0-1.743-.782-1.743-1.743V44.34c0-.962.782-1.743 1.743-1.743h7.507c.723 0 1.35.694 1.613 1.387a99.392 99.392 0 0 0 1.528-.024c.556-.5 1.65-1.806 2.053-2.63l.258-.535c.584-1.22 1.31-2.738 2.053-3.381.088-.077.219-.181.384-.309.35-.275 3.45-2.795 3.838-6.097.154-1.307.637-2.207 1.438-2.676.375-.22.797-.332 1.255-.332.522 0 .925.147 1.036.19l.197.116c.05.037 3.255 2.558 2.024 6.206-1.029 3.052-2.535 4.947-2.704 5.153-.053.1-.178.367-.117.624l4.851.002c1.641.12 4.706 1.186 4.642 4.372-.023 1.072-.41 1.834-.758 2.305.263.47.534 1.219.469 2.255-.074 1.22-.607 2.16-1.113 2.667.183.427.297.839.277 1.392-.052 1.446-.413 2.51-1.072 3.163.077.488.173 1.769-.662 2.941-.403.565-1.202 1.243-2.725 1.263-.806.01-2.781.013-5.05.013z"/>
    </g>
</svg>
