<svg xmlns="http://www.w3.org/2000/svg" width="28" height="30" viewBox="0 0 28 30">
    <path fill="#009490" fill-rule="evenodd" d="M2.026 29.156c-.203.592-.608.792-1.219.792-.402 0-.807-.397-.807-.99.607-5.95 3.646-10.115 7.495-12.102.806-.393 1.415-.789 2.428-.989-.806-.396-1.418-.99-2.026-1.389-1.62-1.587-2.428-3.77-2.428-5.949 0-2.384.809-4.565 2.428-5.947C9.52.993 11.542 0 13.972 0s4.459.993 6.077 2.582c1.623 1.382 2.43 3.563 2.43 5.947 0 2.178-.807 4.362-2.43 5.95-.606.398-1.212.992-2.025 1.388.813.2 1.42.596 2.025.794 4.051 2.182 7.09 6.145 7.897 12.298.205.393-.2.989-.808.989-.605.2-1.012-.2-1.012-.792-.809-5.355-3.446-8.925-6.892-10.708-1.614-.992-3.635-1.387-5.464-1.387-1.82 0-3.646.592-5.265 1.387C5.062 20.23 2.633 23.8 2.026 29.156M18.633 3.964c-1.215-1.188-2.838-1.979-4.661-1.979-1.821 0-3.44.791-4.658 1.98C8.103 5.156 7.29 6.744 7.29 8.528c0 1.784.812 3.372 2.023 4.563 1.217 1.186 2.837 1.785 4.658 1.785 1.823 0 3.446-.599 4.661-1.785 1.216-1.19 2.025-2.779 2.025-4.563 0-1.785-.81-3.372-2.025-4.565"/>
</svg>
