<svg xmlns="http://www.w3.org/2000/svg" width="40" height="40" viewBox="0 0 40 40">
    <g fill="none" fill-rule="evenodd" stroke="#2D2A26">
        <path stroke-width="2" d="M38.976 20c0-10.312-8.36-18.672-18.672-18.672C9.992 1.328 1.63 9.688 1.63 20c0 10.313 8.36 18.672 18.673 18.672 10.312 0 18.672-8.359 18.672-18.672z"/>
        <path fill="#2D2A26" stroke-width=".1" d="M11.29 14.658c.532.347 1.321.523 2.345.523.474 0 1.01-.041 1.56-.118v-.13h.105c.118-1.666-.085-2.891-.603-3.647l-3.407 3.372zm14.415 16.08c-2.65 0-5.61-1.376-7.916-3.68a4.412 4.412 0 0 1-.43-.447c-.083-.094-.16-.182-.244-.266l-.483-.555 4.117-4.263-5.018-5.013c-.344.05-1.144.172-2.049.172-1.693 0-2.966-.414-3.784-1.231l-.056-.056a.691.691 0 0 1-.156-.149l-.052-.058-.48-.564 5.511-5.51.541.465a.23.23 0 0 1 .045.032h.122l.124.143.073.074c1.577 1.578 1.37 4.296 1.283 5.458l-.003.062 6.172 6.17-4.265 4.263.075.075c2.07 2.066 4.626 3.289 6.857 3.289 1.237 0 2.275-.383 3-1.11 2.098-2.132 1.138-6.53-2.142-9.805a1.021 1.021 0 0 1-.125-.108l-2.94 2.937-1.086-1.08 3.958-3.954.54.465c.243.205.457.417.667.625l.066.066c3.866 3.903 4.828 9.29 2.147 12.011-1.012 1.01-2.418 1.542-4.07 1.542z"/>
    </g>
</svg>
