<svg xmlns="http://www.w3.org/2000/svg" width="54" height="77" viewBox="0 0 54 77">
    <g fill="none" fill-rule="evenodd" stroke="#2D2A26" stroke-linecap="round" stroke-linejoin="round">
        <path stroke-width="2.6" d="M51.84 51.21c0 2.48-3.996 4.301-4.725 6.54-.755 2.32 1.377 6.129-.033 8.06-.698.955-2.084 1.238-3.548 1.446-1.527.216-3.138.348-4.137 1.073-1.896 1.376-2.423 5.576-4.631 6.453-.047.02-.095.04-.142.054-2.247.728-5.215-2.47-7.704-2.47-2.488 0-5.456 3.198-7.703 2.472a1.3 1.3 0 0 1-.142-.054c-2.208-.879-2.736-5.079-4.632-6.455-.998-.725-2.61-.857-4.136-1.073-1.464-.208-2.85-.491-3.548-1.446-1.41-1.931.722-5.74-.033-8.06C5.996 55.511 2 53.69 2 51.21c0-2.48 3.996-4.3 4.726-6.54.755-2.32-1.378-6.128.033-8.06 1.423-1.95 5.728-1.098 7.684-2.518 1.937-1.406 2.446-5.755 4.774-6.51 2.247-.726 5.215 2.472 7.703 2.472 2.489 0 5.457-3.198 7.703-2.471 2.328.754 2.837 5.103 4.774 6.509 1.957 1.42 6.261.568 7.685 2.518 1.41 1.932-.722 5.74.033 8.06.73 2.24 4.726 4.06 4.726 6.54z"/>
        <path stroke-width="2.6" d="M26.602 65.504c8.2 0 14.847-6.612 14.847-14.768 0-8.157-6.647-14.769-14.847-14.769-8.199 0-14.846 6.612-14.846 14.769 0 8.156 6.647 14.768 14.846 14.768z"/>
        <path stroke-width="2.2" d="M14.272 33.646l-1.296-3.608V2h7.385v25.256c-.475-.095-.931-.099-1.361.037-2.312.733-2.844 4.908-4.728 6.353zm24.979 0l1.296-3.608V2h-7.385v25.256c.475-.095.93-.099 1.361.037 2.312.733 2.844 4.908 4.728 6.353zm-18.644-6.333V2h12.309v25.313c-1.965.511-4.206 2.415-6.155 2.415-1.948 0-4.19-1.904-6.154-2.415z"/>
    </g>
</svg>
