<svg xmlns="http://www.w3.org/2000/svg" width="32" height="32" viewBox="0 0 32 32">
    <path fill="#2D2A26" fill-rule="evenodd" d="M1.683 30.268l7.126-.021-.022-14.238-7.104.022v14.237zm11.355-.01c1.094.002 5.416.013 8.974.013a447.7 447.7 0 0 0 4.646-.015c.61-.008 1.02-.175 1.25-.508.407-.592.387-1.496.283-1.877l-.712-.625 1.027-.404c.425-.342.666-1.283.736-2.041.054-.589-.227-.946-.283-1.011l-.966-.883 1.218-.525c-.004 0 .765-.515.834-1.694.063-1.049-.397-1.5-.417-1.518l-.76-.72.829-.63c.097-.082.6-.554.62-1.53.043-2.207-2.513-2.496-2.805-2.522l-4.563.002a1.166 1.166 0 0 1-.15.009c-.232 0-.81-.06-1.168-.611-.7-1.08-.262-2.264.106-2.793.153-.198 1.449-1.91 2.315-4.549.672-2.055-.819-3.655-1.292-4.098.002.007-.009.01-.027.01-.037 0-.109-.01-.187-.01a.654.654 0 0 0-.35.09c-.276.171-.47.642-.547 1.327-.447 3.939-3.9 6.822-4.29 7.137-.155.125-.24.194-.302.248-.433.384-.976 1.549-1.501 2.677l-.286.61c-.666 1.401-2.508 3.253-2.625 3.35l-.221.185-.29.007c.002 0-.981.022-1.693.03v11.36c1.1.031 1.466.746 1.606 1.019.095.09.481.303.937.503l.054-.013zM21.87 32c-3.766 0-7.872-.01-8.864-.013h-.355l-.185-.065c-.879-.365-1.33-.994-1.571-1.331l-.058-.081-.097.054a1.307 1.307 0 0 1-.328.148c-.194.741-.851 1.266-1.604 1.266H1.66C.746 31.978 0 31.21 0 30.27V16.009c0-.942.745-1.708 1.66-1.708h7.15c.688 0 1.286.68 1.535 1.36.469-.003 1.091-.016 1.456-.024.53-.49 1.571-1.77 1.955-2.577l.246-.524c.556-1.196 1.248-2.683 1.955-3.313.084-.076.209-.177.366-.302.334-.27 3.286-2.738 3.655-5.974.147-1.28.607-2.162 1.37-2.622A2.28 2.28 0 0 1 22.542 0c.497 0 .88.144.987.187l.187.113c.047.036 3.1 2.506 1.928 6.08-.98 2.99-2.414 4.847-2.575 5.049-.05.098-.17.36-.112.61l4.62.003c1.563.117 4.482 1.162 4.421 4.284-.022 1.05-.39 1.796-.722 2.258.25.46.508 1.194.446 2.21-.07 1.195-.578 2.115-1.06 2.612.175.419.283.822.264 1.364-.05 1.416-.393 2.458-1.02 3.099.073.478.164 1.733-.63 2.881-.384.554-1.145 1.218-2.596 1.237-.768.01-2.649.013-4.81.013z"/>
</svg>
