<svg xmlns="http://www.w3.org/2000/svg" width="40" height="50" viewBox="0 0 40 50">
    <g fill="#2D2A26" fill-rule="evenodd">
        <path d="M0 1.018C0 0 1.142 0 1.142 0h28.592L40 9.167v39.815C40 50 38.858 50 38.858 50H1.142S0 50 0 48.98V1.019zm2.354 46.9V2.083h25.881v6.249c0 2.084 2.356 2.084 2.356 2.084h7.055v37.5H2.354z"/>
        <path d="M10.242 35.696h19.112v-.955H10.242v.955zm-.701 1.378a.698.698 0 0 1-.705-.69v-2.333c0-.38.316-.689.705-.689h20.517c.387 0 .703.309.703.689v2.333c0 .381-.316.69-.703.69H9.541z"/>
        <path d="M30.507 33.362c-.131-.893-.63-2.899-2.461-2.899h-3.778c-.97-.009-1.896-.018-2.538-.74-.584-.654-.823-1.766-.823-3.84 0-2.344.859-4.175 1.427-5.387.305-.659.585-1.266.585-1.613v-1.942c0-1.63-.955-2.423-2.92-2.423-1.963 0-2.918.793-2.918 2.423v1.942c0 .353.286.965.589 1.613.6 1.295 1.42 3.067 1.42 5.387 0 3.888-.88 4.58-3.36 4.58h-3.778c-1.83 0-2.328 2.006-2.46 2.9h21.015zm-21.771 1.38a.699.699 0 0 1-.704-.692c0-1.996 1.044-4.965 3.92-4.965h3.778c1.582 0 1.958 0 1.958-3.202 0-2.01-.714-3.555-1.288-4.795-.392-.84-.723-1.549-.723-2.205v-1.942c0-2.379 1.616-3.8 4.323-3.8 2.707 0 4.323 1.421 4.323 3.8v1.942c0 .647-.312 1.32-.707 2.173-.585 1.257-1.305 2.806-1.305 4.827 0 1.59.16 2.577.477 2.934.215.242.616.268 1.48.268h3.778c2.876 0 3.92 2.97 3.92 4.965a.698.698 0 0 1-.703.691H8.736z"/>
    </g>
</svg>
