<svg xmlns="http://www.w3.org/2000/svg" width="63" height="51" viewBox="0 0 63 51">
    <g fill="none" fill-rule="evenodd" stroke="#2D2A26">
        <path stroke-width="3" d="M58.398 41.692H4.968C3.291 41.692 2 40.382 2 38.68V5.013C2 3.31 3.29 2 4.968 2h53.559c1.678 0 2.968 1.31 2.968 3.013v33.666c-.129 1.703-1.42 3.013-3.097 3.013zM31.748 41.692v7.385M15.522 49.077h33.353"/>
        <path fill="#2D2A26" stroke-width=".2" d="M40.491 10l-2.298 2.667.766.888 2.3-2.666-.768-.889zm-3.633 4.459a.515.515 0 0 0-.114.017l-15.167 4.399c-.241.07-.41.322-.41.61h-1.626c-.299 0-.541.28-.541.627v3.773c0 .346.242.628.541.628h1.626c-.001.289.168.541.41.611l2.298.665v1.866c0 .3.183.558.436.617l5.417 1.257a.486.486 0 0 0 .449-.131.673.673 0 0 0 .198-.486v-1.237l6.369 1.849a.485.485 0 0 0 .465-.116.668.668 0 0 0 .207-.496v-2.951c1.318-.728 2.173-2.268 2.167-3.977-.006-1.697-.859-3.223-2.167-3.945v-2.954c0-.17-.06-.332-.164-.451a.505.505 0 0 0-.394-.175zm6.925.864l-3.016 1.406.403 1.167 3.017-1.404-.404-1.169zm-7.45.57v12.216L22.25 24.024v-4.047l14.083-4.085zm1.083 3.597c.668.581 1.081 1.494 1.084 2.496.004 1.009-.41 1.93-1.084 2.517V19.49zm-17.333 3.766h1.084v-2.514h-1.084v2.514zm21.667-.629H45V21.37h-3.25v1.257zm-16.792 3.477l4.333 1.256v.786l-4.333-1.003v-1.04zm16.132.262l-.426 1.157 2.988 1.482.425-1.156-2.987-1.483zm-2.13 4.079l-.767.888L40.491 34l.768-.89-2.3-2.665z"/>
    </g>
</svg>
