<svg xmlns="http://www.w3.org/2000/svg" width="63" height="51" viewBox="0 0 63 51">
    <g fill="none" fill-rule="evenodd" stroke="#2D2A26">
        <path stroke-width="3" d="M58.398 41.692H4.968C3.291 41.692 2 40.382 2 38.68V5.013C2 3.31 3.29 2 4.968 2h53.559c1.678 0 2.968 1.31 2.968 3.013v33.666c-.129 1.703-1.42 3.013-3.097 3.013zM31.748 41.692v7.385M15.522 49.077h33.353"/>
        <path stroke-linecap="round" stroke-linejoin="round" stroke-width="1.6" d="M43 23.326v-2.653l-2.51-.79a8.702 8.702 0 0 0-.994-2.384l1.22-2.34-1.876-1.875-2.345 1.223a8.72 8.72 0 0 0-2.375-.982L33.327 11h-2.653l-.794 2.525a8.705 8.705 0 0 0-2.374.982l-2.346-1.223-1.875 1.876 1.22 2.339a8.702 8.702 0 0 0-.995 2.385l-2.51.79v2.652l2.5.786c.212.86.55 1.67.994 2.408l-1.21 2.32 1.876 1.876 2.312-1.206c.742.449 1.556.791 2.421 1.004l.78 2.486h2.653l.782-2.486a8.667 8.667 0 0 0 2.42-1.004l2.312 1.206 1.876-1.876-1.21-2.32a8.723 8.723 0 0 0 .994-2.408l2.5-.786zm-11 4.497a5.805 5.805 0 1 1 0-11.61 5.805 5.805 0 0 1 0 11.61z"/>
    </g>
</svg>
