<svg xmlns="http://www.w3.org/2000/svg" width="40" height="50" viewBox="0 0 40 50">
    <g fill="#2D2A26" fill-rule="evenodd">
        <path d="M0 1.018C0 0 1.142 0 1.142 0h28.592L40 9.167v39.815C40 50 38.858 50 38.858 50H1.142S0 50 0 48.98V1.019zm2.354 46.9V2.083h25.881v6.249c0 2.084 2.356 2.084 2.356 2.084h7.055v37.5H2.354z"/>
        <path d="M29.05 17l-2.357 2.497.786.831 2.36-2.496L29.05 17zm-3.727 4.174a.575.575 0 0 0-.118.016L9.644 25.31a.583.583 0 0 0-.42.57H7.554c-.307 0-.555.263-.555.587V30c0 .325.248.588.555.588h1.668a.583.583 0 0 0 .421.573l2.358.623v1.746c0 .281.187.523.447.578l5.558 1.177a.532.532 0 0 0 .46-.123.603.603 0 0 0 .204-.454v-1.159l6.534 1.731a.532.532 0 0 0 .478-.108.6.6 0 0 0 .213-.464v-2.764c1.352-.681 2.229-2.123 2.223-3.723-.006-1.589-.881-3.018-2.223-3.693V21.76c0-.16-.062-.311-.17-.422a.541.541 0 0 0-.403-.165zm7.105.81L29.333 23.3l.414 1.093 3.096-1.315-.415-1.094zm-7.644.533v11.437l-14.45-3.824V26.34l14.45-3.824zm1.112 3.368a2.992 2.992 0 0 1 1.112 2.337 2.991 2.991 0 0 1-1.112 2.356v-4.693zM8.11 29.41h1.112v-2.354H8.111v2.354zm22.231-.589h3.335v-1.177h-3.335v1.177zm-17.229 3.255l4.446 1.177v.735l-4.446-.939v-.973zm16.552.246l-.437 1.083 3.066 1.387.436-1.082-3.065-1.388zm-2.186 3.818l-.786.832 2.358 2.497.788-.832-2.36-2.497z"/>
    </g>
</svg>
