<svg xmlns="http://www.w3.org/2000/svg" width="28" height="30" viewBox="0 0 28 30">
    <path fill="#000" fill-rule="evenodd" d="M2.026 28.914c-.203.588-.608.786-1.219.786-.402 0-.807-.394-.807-.98.607-5.902 3.646-10.033 7.495-12.004.806-.39 1.415-.782 2.428-.98-.806-.393-1.418-.982-2.026-1.377-1.62-1.574-2.428-3.74-2.428-5.9 0-2.365.809-4.528 2.428-5.898C9.52.985 11.542 0 13.972 0s4.459.985 6.077 2.56c1.623 1.371 2.43 3.534 2.43 5.899 0 2.16-.807 4.326-2.43 5.9-.606.395-1.212.984-2.025 1.377.813.198 1.42.59 2.025.787 4.051 2.164 7.09 6.094 7.897 12.196.205.39-.2.98-.808.98-.605.2-1.012-.197-1.012-.785-.809-5.31-3.446-8.85-6.892-10.62-1.614-.983-3.635-1.375-5.464-1.375-1.82 0-3.646.587-5.265 1.376-3.443 1.768-5.872 5.309-6.479 10.62M18.633 3.93c-1.215-1.178-2.838-1.962-4.661-1.962-1.821 0-3.44.784-4.658 1.962C8.103 5.114 7.29 6.688 7.29 8.46c0 1.769.812 3.344 2.023 4.525 1.217 1.176 2.837 1.77 4.658 1.77 1.823 0 3.446-.594 4.661-1.77 1.216-1.181 2.025-2.756 2.025-4.525 0-1.77-.81-3.345-2.025-4.528"/>
</svg>
