<svg xmlns="http://www.w3.org/2000/svg" width="20" height="18" viewBox="0 0 20 18">
    <path fill="#FD5D60" fill-rule="evenodd" d="M17.113 7.375c.789-.748 1.254-1.832 1.254-3.016C18.367 2.15 16.71.35 14.674.35c-.733 0-1.416.238-1.991.64A4.308 4.308 0 0 0 9.949 0a4.3 4.3 0 0 0-2.725.982 3.466 3.466 0 0 0-1.977-.63c-2.039 0-3.693 1.798-3.693 4.007 0 1.176.483 2.286 1.284 3.036C1.106 8.262 0 9.984 0 11.93v2.205c0 .283.236.51.525.51h2.863l-.002.017v2.832c0 .281.235.506.526.506h12.173a.517.517 0 0 0 .529-.506v-2.826l-.002-.023h2.862c.29 0 .526-.227.526-.51v-2.207c0-1.932-1.149-3.692-2.887-4.553zm-16.061 6.25v-1.697c0-1.815 1.207-3.389 3-3.914a.513.513 0 0 0 .37-.44.503.503 0 0 0-.274-.498c-.938-.484-1.541-1.553-1.541-2.717 0-1.648 1.183-2.99 2.64-2.99.45 0 .872.131 1.243.358a5.216 5.216 0 0 0-1.118 3.257c0 1.539.665 2.989 1.75 3.92-1.948.903-3.3 2.66-3.647 4.721H1.052zm14.507 3.359H4.439v-2.316c0-2.383 1.584-4.451 3.941-5.145a.514.514 0 0 0 .371-.437.507.507 0 0 0-.275-.5C7.23 7.939 6.427 6.523 6.427 4.984c0-2.187 1.579-3.966 3.522-3.966 1.941 0 3.523 1.779 3.523 3.966 0 1.526-.793 2.934-2.019 3.586a.505.505 0 0 0 .105.936c2.356.666 4.001 2.787 4.001 5.164v2.314zm3.388-3.359h-2.428c-.355-2.063-1.75-3.852-3.709-4.746a4.75 4.75 0 0 0 .838-.951.5.5 0 0 0 .199-.321 5.315 5.315 0 0 0 .678-2.623c0-1.24-.42-2.377-1.111-3.25a2.37 2.37 0 0 1 1.261-.365c1.456 0 2.639 1.342 2.639 2.99 0 1.155-.597 2.215-1.521 2.705a.512.512 0 0 0-.268.504.518.518 0 0 0 .377.434c1.793.504 3.045 2.121 3.045 3.926v1.697z"/>
</svg>
