<svg xmlns="http://www.w3.org/2000/svg" width="207" height="52" viewBox="0 0 207 52">
    <g fill="#2D2A26" fill-rule="evenodd">
        <path d="M.602 39L8.235.069l12.385 28.13L33.533.069 40.35 39h-5.617l-3.456-21.842L20.524 40.68l-10.37-23.57L6.268 39zM46.97 39h5.28V16.15h-5.28V39zm2.64-35.715c1.872 0 3.456 1.536 3.456 3.408 0 1.872-1.536 3.456-3.408 3.456a3.44 3.44 0 0 1-3.456-3.456c0-1.824 1.536-3.408 3.408-3.408zM58.921 16.15h5.328v2.112c1.824-1.824 3.89-2.736 6.241-2.736 2.208 0 4.08.576 5.568 1.872 1.777 1.536 2.545 3.889 2.545 7.585V39h-5.28V26.23c0-4.415-1.105-5.952-4.274-5.952-3.503 0-4.8 1.92-4.8 7.729V39h-5.328V16.15zM83.16 21.094V16.15h2.256V7.797h5.281v8.353h4.08v4.944h-4.08v7.873c0 2.256.336 3.792.96 4.656.624.865 1.728 1.296 3.312 1.296l-1.44 4.753c-2.64 0-4.704-.864-6.193-2.496-1.296-1.44-1.92-3.793-1.92-6.96v-9.122H83.16zM117.05 10.822c-1.68-2.833-2.832-3.553-5.376-3.553-2.93 0-5.281 1.873-5.281 4.465 0 1.824 1.297 3.168 3.937 4.272l3.6 1.488c5.856 2.449 8.497 5.617 8.497 10.609 0 6.769-5.185 11.569-11.665 11.569-6.29 0-10.561-3.84-11.521-10.657l5.52-1.2c.576 5.28 2.88 6.72 6.24 6.72 3.457 0 5.905-2.544 5.905-6.047 0-2.785-1.488-4.657-5.136-6.145l-3.505-1.44c-4.992-2.064-7.44-5.185-7.44-9.217 0-5.472 4.896-9.601 10.897-9.601 4.176 0 7.44 2.064 9.793 6.096l-4.465 2.64zM138.649 34.968c3.937 0 6.528-3.168 6.528-7.345 0-4.128-2.591-7.344-6.48-7.344-3.696 0-6.384 3.216-6.384 7.248 0 4.273 2.64 7.44 6.336 7.44zm6.192-18.818h5.28V39h-5.28v-2.4c-2.16 2.064-4.512 3.072-7.008 3.072-6.337 0-10.897-5.28-10.897-12.145 0-6.768 4.609-12.001 10.753-12.001 2.64 0 5.04 1.104 7.152 3.313v-2.69zM167.449 20.278c-3.888 0-6.336 3.072-6.336 7.393 0 4.272 2.448 7.296 6.336 7.296 3.888 0 6.384-3.12 6.384-7.344 0-4.225-2.544-7.345-6.384-7.345zm11.425 18.194c0 2.112-.144 3.792-.384 4.992-1.104 5.088-5.376 8.017-10.705 8.017-6.097 0-10.465-3.6-11.041-9.457h5.28c.72 3.36 2.737 4.704 5.809 4.704 3.84 0 5.76-2.352 5.76-7.104v-3.169c-2.063 2.113-4.464 3.217-7.2 3.217-6.193 0-10.657-5.089-10.657-11.953 0-6.865 4.224-12.193 10.705-12.193 2.88 0 5.28 1.104 7.153 3.216V16.15h5.28v22.322zM200.953 24.503c-.72-2.784-2.544-4.225-5.329-4.225-2.544 0-4.608 1.633-5.28 4.225h10.61zm-10.945 4.32c.288 3.649 2.544 6.145 5.952 6.145 2.641 0 3.985-1.008 6.145-4.417L206.57 33c-2.736 4.704-6.048 6.672-10.8 6.672-6.817 0-11.28-4.848-11.28-12.05 0-7.247 4.32-12.096 10.991-12.096 6.817 0 10.897 4.705 10.897 12.049v1.248h-16.369z"/>
    </g>
</svg>
