<svg xmlns="http://www.w3.org/2000/svg" width="49" height="32" viewBox="0 0 49 32">
    <g fill="#2D2A26" fill-rule="evenodd">
        <path d="M48.267 15.233a1.395 1.395 0 0 0-1.25-.781H8.727C3.922 14.452 0 18.324 0 23.094c0 4.76 3.912 8.64 8.727 8.64h38.29c.532 0 1.013-.302 1.25-.78a1.371 1.371 0 0 0-.156-1.453 10.178 10.178 0 0 1-2.256-6.348c0-.02.137-4.38 2.256-6.468.372-.37.384-.975.156-1.452M9.112 24.469h34.032c.169 1.55.61 3.082 1.342 4.506H8.727c-3.28 0-5.948-2.644-5.948-5.89 0-3.248 2.668-5.892 5.948-5.892h35.759a12.989 12.989 0 0 0-1.342 4.507H9.112a1.38 1.38 0 0 0-1.389 1.374c0 .781.622 1.395 1.389 1.395"/>
        <path d="M48.267.781A1.395 1.395 0 0 0 47.017 0H8.727C3.922 0 0 3.872 0 8.642c0 4.76 3.912 8.641 8.727 8.641h38.29c.532 0 1.013-.302 1.25-.78a1.371 1.371 0 0 0-.156-1.454 10.178 10.178 0 0 1-2.256-6.348c0-.02.137-4.379 2.256-6.467.372-.37.384-.976.156-1.453M9.112 10.017h34.032c.169 1.55.61 3.082 1.342 4.507H8.727c-3.28 0-5.948-2.645-5.948-5.891 0-3.248 2.668-5.891 5.948-5.891h35.759a12.989 12.989 0 0 0-1.342 4.507H9.112a1.38 1.38 0 0 0-1.389 1.373c0 .782.622 1.395 1.389 1.395"/>
    </g>
</svg>
