<svg xmlns="http://www.w3.org/2000/svg" width="63" height="51" viewBox="0 0 63 51">
    <g fill="none" fill-rule="evenodd" stroke="#2D2A26">
        <path stroke-width="3" d="M58.398 41.692H4.968C3.291 41.692 2 40.382 2 38.68V5.013C2 3.31 3.29 2 4.968 2h53.559c1.678 0 2.968 1.31 2.968 3.013v33.666c-.129 1.703-1.42 3.013-3.097 3.013zM31.748 41.692v7.385M15.522 49.077h33.353"/>
        <g fill="#FFF" stroke-linecap="round" stroke-linejoin="round">
            <path stroke-width="1.2" d="M27.47 18L27 16.86V8h2.679v7.98a1.12 1.12 0 0 0-.494.012c-.839.232-1.032 1.551-1.715 2.008zm9.06 0l.47-1.14V8h-2.679v7.98a1.12 1.12 0 0 1 .494.012c.839.232 1.032 1.551 1.715 2.008zm-6.762-2.001V8h4.464v7.999c-.712.161-1.525.763-2.232.763-.707 0-1.52-.602-2.232-.763z"/>
            <path stroke-width="1.4" d="M41 25c0 .94-1.443 1.63-1.707 2.48-.272.88.498 2.324-.012 3.056-.252.362-.752.47-1.281.548-.551.082-1.133.132-1.494.407-.685.522-.875 2.115-1.673 2.447a.46.46 0 0 1-.051.02c-.811.277-1.883-.936-2.782-.936s-1.97 1.213-2.782.937a.456.456 0 0 1-.051-.02c-.798-.333-.988-1.926-1.673-2.448-.36-.275-.943-.325-1.494-.407-.529-.078-1.03-.186-1.281-.548-.51-.732.26-2.176-.012-3.056C24.443 26.63 23 25.94 23 25s1.443-1.63 1.707-2.48c.272-.88-.498-2.324.012-3.056.514-.74 2.068-.417 2.775-.955.7-.533.883-2.182 1.724-2.468.811-.276 1.883.937 2.782.937s1.97-1.213 2.782-.937c.84.286 1.025 1.935 1.724 2.468.707.538 2.261.215 2.775.955.51.732-.26 2.176.012 3.056C39.557 23.37 41 24.06 41 25z"/>
            <path stroke-width="1.4" d="M32 30a5 5 0 1 0 0-10 5 5 0 0 0 0 10z"/>
        </g>
    </g>
</svg>
