<svg xmlns="http://www.w3.org/2000/svg" width="299" height="20" viewBox="0 0 299 20">
    <g fill="#2D2A26" fill-rule="evenodd">
        <path d="M8.569 5.172c-.808-1.36-1.363-1.708-2.587-1.708-1.409 0-2.541.9-2.541 2.147 0 .878.625 1.525 1.895 2.056l1.731.716c2.817 1.178 4.088 2.702 4.088 5.104 0 3.257-2.494 5.567-5.611 5.567-3.026 0-5.081-1.848-5.544-5.128l2.657-.577c.276 2.54 1.385 3.233 3.001 3.233 1.663 0 2.842-1.223 2.842-2.91 0-1.339-.716-2.24-2.472-2.957l-1.686-.692C1.94 9.03.763 7.528.763 5.59.763 2.955 3.119.97 6.006.97c2.009 0 3.58.993 4.711 2.933l-2.148 1.27zM27.176 5.358c-1.5-1.271-3.07-1.894-4.71-1.894-3.58 0-6.376 2.933-6.376 6.605 0 3.603 2.795 6.514 6.4 6.514 1.8 0 2.978-.508 4.686-1.987v3.164c-1.479.855-3.07 1.294-4.734 1.294-4.966 0-8.985-3.973-8.985-8.962 0-4.965 3.927-9.123 9.193-9.123 1.57 0 3.072.439 4.526 1.294v3.095zM33.611 8.13h7.506V1.315h2.633V18.73h-2.633V10.6h-7.506v8.13h-2.633V1.316h2.633zM56.074 16.583c3.626 0 6.514-2.864 6.514-6.56 0-3.741-2.866-6.558-6.445-6.558-3.511 0-6.467 2.863-6.467 6.513 0 3.856 3.094 6.605 6.398 6.605m.114-15.59c4.92 0 9.054 4.134 9.054 9.053 0 4.989-4.18 9.009-9.192 9.009-4.781 0-9.007-3.881-9.007-9.1 0-4.897 4.157-8.962 9.145-8.962M71.166 1.316v14.942h5.127v2.472h-7.76V1.316zM88.897 12.033L86.311 6.12l-2.702 5.912h5.288zm1.062 2.47H82.5l-1.94 4.227h-2.818L86.358.23l8.313 18.5h-2.887l-1.825-4.226zM99.466 9.307h.831c2.45 0 3.742-.97 3.742-2.84 0-1.779-1.2-2.68-3.627-2.68h-.946v5.52zm8.661 9.423h-3.21l-4.967-7.136h-.484v7.136h-2.633V1.316h3.095c2.494 0 4.157.578 5.196 1.501 1.063.948 1.48 2.24 1.48 3.603 0 2.471-1.572 4.388-3.858 4.896l5.381 7.414zM118.444 5.172c-.809-1.36-1.364-1.708-2.588-1.708-1.409 0-2.541.9-2.541 2.147 0 .878.625 1.525 1.896 2.056l1.731.716c2.817 1.178 4.088 2.702 4.088 5.104 0 3.257-2.494 5.567-5.611 5.567-3.026 0-5.082-1.848-5.544-5.128l2.656-.577c.277 2.54 1.385 3.233 3.002 3.233 1.663 0 2.842-1.223 2.842-2.91 0-1.339-.717-2.24-2.472-2.957l-1.686-.692c-2.402-.994-3.58-2.495-3.58-4.434 0-2.634 2.357-4.62 5.244-4.62 2.009 0 3.579.993 4.71 2.933l-2.147 1.27zM126.82 8.13h7.507V1.315h2.633V18.73h-2.633V10.6h-7.507v8.13h-2.633V1.316h2.633zM141.106 18.73h2.633V1.316h-2.633zM150.55 9.215h.992c2.404 0 3.605-.925 3.605-2.772 0-1.8-1.226-2.702-3.72-2.702h-.877v5.474zm0 2.448v7.067h-2.633V1.316h2.978c1.456 0 2.563.091 3.302.3 2.172.6 3.488 2.657 3.488 4.85 0 3.233-2.377 5.197-5.911 5.197h-1.225zM180.378 5.358c-1.501-1.271-3.071-1.894-4.712-1.894-3.58 0-6.374 2.933-6.374 6.605 0 3.603 2.795 6.514 6.399 6.514 1.799 0 2.978-.508 4.687-1.987v3.164c-1.48.855-3.071 1.294-4.734 1.294-4.966 0-8.985-3.973-8.985-8.962 0-4.965 3.927-9.123 9.193-9.123 1.57 0 3.072.439 4.526 1.294v3.095zM191.755 16.583c3.626 0 6.513-2.864 6.513-6.56 0-3.741-2.865-6.558-6.445-6.558-3.51 0-6.466 2.863-6.466 6.513 0 3.856 3.094 6.605 6.398 6.605m.114-15.59c4.92 0 9.054 4.134 9.054 9.053 0 4.989-4.18 9.009-9.192 9.009-4.781 0-9.007-3.881-9.007-9.1 0-4.897 4.157-8.962 9.145-8.962M203.614 18.73L207.287 0l5.957 13.534L219.458 0l3.28 18.73h-2.704l-1.661-10.509-5.174 11.318-4.99-11.34-1.87 10.531zM225.797 18.73L229.47 0l5.958 13.534L241.642 0l3.279 18.73h-2.703l-1.662-10.509-5.174 11.318-4.99-11.34-1.868 10.531zM256.757 16.583c3.627 0 6.514-2.864 6.514-6.56 0-3.741-2.865-6.558-6.445-6.558-3.51 0-6.468 2.863-6.468 6.513 0 3.856 3.094 6.605 6.4 6.605m.114-15.59c4.92 0 9.053 4.134 9.053 9.053 0 4.989-4.18 9.009-9.192 9.009-4.78 0-9.007-3.881-9.007-9.1 0-4.897 4.157-8.962 9.146-8.962M269.216 18.73V.138l12.703 13.28V1.316h2.633v18.477L271.85 6.536V18.73zM296.414 5.172c-.808-1.36-1.363-1.708-2.587-1.708-1.41 0-2.541.9-2.541 2.147 0 .878.625 1.525 1.895 2.056l1.73.716C297.73 9.561 299 11.085 299 13.487c0 3.257-2.494 5.567-5.611 5.567-3.026 0-5.081-1.848-5.544-5.128l2.657-.577c.276 2.54 1.385 3.233 3 3.233 1.664 0 2.843-1.223 2.843-2.91 0-1.339-.716-2.24-2.471-2.957l-1.687-.692c-2.402-.994-3.58-2.495-3.58-4.434 0-2.634 2.357-4.62 5.244-4.62 2.007 0 3.58.993 4.71 2.933l-2.147 1.27z"/>
    </g>
</svg>
