<svg xmlns="http://www.w3.org/2000/svg" width="19" height="26" viewBox="0 0 19 26">
    <path fill="#000" fill-rule="evenodd" stroke="#000" stroke-width=".2" d="M14.407 25c-2.955 0-7.111-3.53-10.105-8.586-1.735-2.928-2.872-5.984-3.204-8.6-.351-2.773.248-4.762 1.684-5.613l1.676-.996c.719-.426 1.72-.164 2.144.55l2.487 4.194a1.572 1.572 0 0 1-.547 2.15l-1.119.66c-.352.21-.495.86-.383 1.741.135 1.055.603 2.305 1.318 3.512 1.52 2.564 3.447 3.763 4.156 3.342l1.118-.665c.722-.427 1.72-.164 2.144.55l2.488 4.2c.215.358.276.781.17 1.186a1.55 1.55 0 0 1-.718.961l-1.678.988a3.145 3.145 0 0 1-1.631.426M5.253 2.031a.516.516 0 0 0-.264.074l-1.678.993c-1.036.617-1.467 2.288-1.177 4.582.314 2.48 1.4 5.394 3.066 8.201 2.771 4.68 6.643 8.072 9.207 8.072.416 0 .787-.094 1.098-.279l1.679-.99a.52.52 0 0 0 .184-.714l-2.49-4.199a.53.53 0 0 0-.715-.183l-1.115.666c-1.407.826-3.881-.827-5.59-3.713-.787-1.326-1.303-2.719-1.455-3.912-.17-1.348.144-2.33.884-2.768l1.12-.664a.526.526 0 0 0 .184-.717L5.702 2.287a.515.515 0 0 0-.449-.256"/>
</svg>
