<svg xmlns="http://www.w3.org/2000/svg" width="40" height="40" viewBox="0 0 40 40">
    <g fill="#FD5D60" fill-rule="evenodd">
        <path d="M22.758 1.74l8.372 16.628 8.508 16.893c.251.498.371 1.03.361 1.56v.004a3.314 3.314 0 0 1-.418 1.55 3.17 3.17 0 0 1-1.116 1.18v.003a3.004 3.004 0 0 1-1.586.443H3.117a3.007 3.007 0 0 1-1.578-.443l-.006-.003v.003a3.157 3.157 0 0 1-1.116-1.185A3.333 3.333 0 0 1 0 36.819c-.009-.528.11-1.06.36-1.558l8.508-16.893L17.24 1.74A3.187 3.187 0 0 1 18.361.479 3.01 3.01 0 0 1 20 0c.594 0 1.153.166 1.638.479.466.298.85.727 1.121 1.261zm5.827 17.895L20.212 3.007a.349.349 0 0 0-.117-.142c-.137-.021-.17-.013-.193 0a.364.364 0 0 0-.116.142l-8.373 16.628-8.509 16.893a.572.572 0 0 0-.058.247c.001.07.026.151.071.234a.322.322 0 0 0 .111.127c.014.01 5.671.017 16.971.021h16.88c.131-.041.166-.084.202-.148a.528.528 0 0 0 .072-.236.54.54 0 0 0-.06-.245l-8.508-16.893z"/>
        <path d="M21.857 26.264V14.43c0-.787-.644-1.43-1.43-1.43-.786 0-1.427.652-1.427 1.43V26.264c0 .781.641 1.431 1.427 1.431s1.43-.645 1.43-1.431v7.359"/>
        <path d="M20.427 32.857A1.427 1.427 0 0 1 19 31.428a1.427 1.427 0 1 1 2.857 0 1.43 1.43 0 0 1-1.43 1.429z"/>
    </g>
</svg>
