<svg xmlns="http://www.w3.org/2000/svg" width="40" height="50" viewBox="0 0 40 50">
    <g fill="#2D2A26" fill-rule="evenodd">
        <path d="M0 1.018C0 0 1.143 0 1.143 0h28.59L40 9.167v39.815C40 50 38.857 50 38.857 50H1.143S0 50 0 48.98V1.019zm2.353 46.9V2.083h25.882v6.249c0 2.084 2.356 2.084 2.356 2.084h7.056v37.5H2.353z"/>
        <path d="M10.604 36.809l4.677-.014-.015-9.083-4.662.015v9.082zm7.452-.007c.718.002 3.554.009 5.89.009 1.357 0 2.544-.003 3.049-.01.4-.005.669-.111.82-.324.267-.378.253-.954.186-1.197l-.468-.399.674-.258c.279-.218.437-.818.483-1.302a.861.861 0 0 0-.186-.645l-.633-.563.8-.335c-.004 0 .5-.329.546-1.08.041-.67-.26-.957-.274-.97l-.498-.458.544-.402c.063-.052.394-.354.406-.977.029-1.407-1.649-1.592-1.84-1.608l-2.995.001a.787.787 0 0 1-.098.006c-.152 0-.532-.039-.766-.39-.46-.689-.173-1.444.069-1.782.1-.126.95-1.218 1.52-2.901.44-1.312-.538-2.332-.849-2.615.002.005-.006.007-.018.007-.024 0-.07-.007-.122-.007a.439.439 0 0 0-.23.057c-.18.11-.308.41-.359.848-.293 2.512-2.559 4.351-2.816 4.552-.1.08-.157.124-.198.158-.283.245-.64.988-.984 1.708l-.188.39c-.437.893-1.646 2.075-1.723 2.136l-.145.119-.19.004c.001 0-.644.014-1.111.019v7.246c.721.02.962.477 1.054.65.062.058.316.194.615.322l.035-.009zm5.797 1.112c-2.471 0-5.166-.007-5.817-.009h-.233l-.121-.041c-.577-.233-.873-.634-1.031-.85-.015-.018-.028-.036-.038-.051l-.064.034a.87.87 0 0 1-.215.095 1.093 1.093 0 0 1-1.053.807h-4.692c-.6 0-1.089-.489-1.089-1.09v-9.096c0-.602.489-1.09 1.09-1.09h4.691c.452 0 .845.434 1.008.867.308-.001.716-.01.956-.015.347-.313 1.03-1.129 1.283-1.644l.16-.334c.366-.763.82-1.712 1.284-2.113.055-.049.137-.113.24-.193.219-.172 2.156-1.747 2.399-3.811.096-.817.398-1.38.898-1.672.234-.138.499-.208.785-.208.326 0 .578.092.647.119l.123.072c.031.023 2.035 1.6 1.265 3.88-.643 1.907-1.584 3.091-1.69 3.22-.032.062-.11.23-.073.39l3.032.001c1.026.075 2.942.741 2.901 2.733a2.478 2.478 0 0 1-.473 1.44c.164.293.333.762.292 1.41-.046.762-.379 1.35-.695 1.667.114.266.186.523.173.87-.032.903-.258 1.568-.67 1.976.048.305.108 1.106-.414 1.838-.251.354-.75.777-1.703.79-.504.005-1.738.008-3.156.008z"/>
    </g>
</svg>
