<svg xmlns="http://www.w3.org/2000/svg" width="48" height="48" viewBox="0 0 48 48">
    <g fill="#C8C8C8" fill-rule="evenodd">
        <path d="M2.743 20.885h41.096c.08-.962.08-.963-.75-1.341-6.455-2.936-12.913-5.87-19.364-8.816-.32-.147-.565-.144-.882 0-6.451 2.947-12.908 5.882-19.364 8.818-.813.37-.814.368-.763 1.269 0 .013.01.027.027.07m22.47-14.908V4.495h5.66V1.522h-6.825v.432c0 2.27.01 4.543-.008 6.815-.003.345.097.516.42.664 6.706 3.039 13.404 6.096 20.115 9.127.612.276.883.63.827 1.285-.044.526-.008 1.059-.01 1.588 0 .723-.26.98-1.001.98l-15.912-.002H2.276c-.882 0-1.096-.211-1.097-1.07 0-.528.032-1.059-.008-1.586-.042-.582.195-.91.735-1.153 3.862-1.738 7.713-3.498 11.567-5.25 2.89-1.315 5.78-2.633 8.676-3.937.287-.13.383-.282.382-.595-.015-2.597-.01-5.196-.008-7.796 0-.8.23-1.023 1.047-1.023h7.861c.746 0 1.002.25 1.002.976 0 1.354.002 2.707-.001 4.062-.002.673-.268.936-.946.937-2.077.002-4.156 0-6.273 0M23.615 45.72h22.433c.175 0 .353-.018.523.011.413.068.662.325.664.73.003.409-.244.663-.653.742-.139.027-.286.012-.428.012H1.097c-.127 0-.254.007-.38-.005-.415-.041-.715-.354-.717-.738-.002-.385.294-.703.707-.746.094-.01.19-.005.285-.005l22.623-.001M8.929 38.135h2.217V26.23H8.929v11.905zm-3.05-15.278h1.496c0 .386-.009.754.002 1.124.014.497.224.718.727.723 1.287.01 2.573.01 3.858 0 .506-.003.723-.224.743-.714.014-.358.002-.716.002-1.111h1.463c.224 1.369-.018 2.34-1.24 3.078-.128.077-.211.322-.212.491-.013 2.923-.008 5.85-.008 8.774 0 .916-.01 1.835.008 2.753.002.142.076.35.185.411 1.265.7 1.464 1.815 1.293 3.108h-1.489c0-.364.01-.73 0-1.096-.016-.526-.225-.74-.759-.745-1.27-.01-2.54-.008-3.81 0-.535.003-.747.217-.764.736-.006.186 0 .372 0 .56v.538H5.886c-.183-1.304.034-2.424 1.324-3.119.091-.048.155-.223.155-.337.008-3.905.008-7.81.001-11.714 0-.107-.045-.25-.123-.315-1.382-1.136-1.512-1.42-1.366-3.145zM22.925 38.115h2.23V26.223h-2.23v11.892zm-3.083-15.258h1.526c0 .38-.01.749 0 1.116.015.5.22.724.724.729 1.302.012 2.604.011 3.905 0 .473-.005.683-.231.701-.704.013-.37.003-.74.003-1.134h1.455c.25 1.397-.04 2.342-1.187 3.064-.127.079-.254.275-.256.418a2161.64 2161.64 0 0 0-.003 11.668c.001.125.08.313.182.369 1.262.7 1.474 1.809 1.295 3.108h-1.486c0-.342.004-.692-.002-1.043-.011-.585-.214-.794-.8-.798a402.382 402.382 0 0 0-3.714 0c-.609.004-.81.215-.817.83-.005.323-.001.65-.001 1.005h-1.485c-.183-1.299.03-2.415 1.315-3.123.118-.065.163-.34.163-.515.009-3.532.007-7.063.007-10.594 0-.063-.009-.126 0-.188.087-.617-.035-1.076-.658-1.454-.611-.369-.89-1.033-.868-1.772.008-.311.001-.62.001-.982zM36.917 38.117h2.23V26.225h-2.23v11.892zm3.778-15.26h1.463c.217 1.388-.017 2.37-1.253 3.097a.489.489 0 0 0-.2.36c-.01 3.905-.01 7.81-.004 11.715 0 .107.036.253.112.32 1.428 1.226 1.494 1.365 1.387 3.13h-1.505c0-.357.01-.726-.003-1.092-.015-.517-.233-.732-.768-.736-1.27-.009-2.54-.009-3.808 0-.532.005-.74.221-.754.747-.009.354-.002.708-.002 1.091h-1.45c-.258-1.396.03-2.335 1.174-3.06.135-.086.263-.302.264-.458.014-3.858.013-7.716.003-11.574 0-.144-.067-.36-.174-.42-1.018-.58-1.444-1.441-1.343-2.576.015-.168 0-.337 0-.534h1.526c0 .368-.007.723.002 1.076.013.532.218.755.742.76 1.286.01 2.572.01 3.858 0 .502-.005.709-.226.731-.725.008-.186.002-.372.002-.56v-.56zM23.619 43.786l-20.192-.001c-.16 0-.324.017-.474-.018-.38-.087-.62-.325-.62-.72 0-.415.24-.666.648-.743.154-.03.317-.014.474-.014l40.48.001c.143 0 .29-.014.428.013.388.075.628.31.642.7.017.414-.219.676-.625.763-.183.04-.379.019-.569.019H23.62"/>
        <path d="M24.07 15.211c-.942-.014-1.54.544-1.553 1.452-.012.931.544 1.512 1.47 1.532.962.023 1.57-.544 1.577-1.474.008-.922-.559-1.495-1.494-1.51m3.02 1.5c-.006 1.55-1.485 2.987-3.069 2.98-1.579-.006-3.047-1.47-3.03-3.019.018-1.531 1.48-2.952 3.045-2.958 1.58-.003 3.06 1.447 3.053 2.997"/>
    </g>
</svg>
