<svg xmlns="http://www.w3.org/2000/svg" width="64" height="80" viewBox="0 0 64 80">
    <g fill="#009490" fill-rule="evenodd">
        <path d="M0 1.63C0 0 1.829 0 1.829 0h45.745L64 14.667v63.705C64 80 62.171 80 62.171 80H1.83S0 80 0 78.37V1.63zm3.765 75.038V3.335h41.412v9.997c0 3.336 3.768 3.336 3.768 3.336h11.29v60H3.765z"/>
        <path d="M17.903 55.944H45.2v-1.425H17.903v1.425zM16.902 58a1.019 1.019 0 0 1-1.007-1.03v-3.48c0-.567.451-1.028 1.007-1.028h29.304c.553 0 1.005.46 1.005 1.028v3.48c0 .569-.452 1.03-1.005 1.03H16.902z"/>
        <path d="M46.927 52.245c-.186-1.336-.895-4.336-3.496-4.336h-5.367c-1.376-.013-2.693-.027-3.605-1.108-.83-.977-1.17-2.64-1.17-5.742 0-3.506 1.221-6.245 2.028-8.058.433-.986.831-1.894.831-2.413v-2.904c0-2.438-1.357-3.624-4.147-3.624s-4.146 1.186-4.146 3.624v2.904c0 .528.406 1.444.836 2.413.853 1.937 2.02 4.587 2.02 8.058 0 5.815-1.251 6.85-4.775 6.85h-5.367c-2.6 0-3.307 3-3.494 4.336h29.852zM16 54.308c-.551 0-1-.464-1-1.034 0-2.985 1.483-7.426 5.569-7.426h5.367c2.247 0 2.781 0 2.781-4.79 0-3.006-1.014-5.317-1.83-7.171-.557-1.257-1.027-2.317-1.027-3.299v-2.904c0-3.559 2.296-5.684 6.141-5.684 3.846 0 6.142 2.125 6.142 5.684v2.904c0 .968-.444 1.975-1.005 3.25-.83 1.88-1.854 4.198-1.854 7.22 0 2.377.23 3.855.678 4.389.305.362.875.4 2.102.4h5.367c4.086 0 5.569 4.442 5.569 7.427 0 .57-.447 1.034-.999 1.034h-32z"/>
    </g>
</svg>
